<svg width="1353" height="909" viewBox="0 0 1353 909" fill="none" xmlns="http://www.w3.org/2000/svg">
<path d="M1277.62 908V909H1272.55V908H1221.79V909H1216.71V908H1165.95V909H1160.88V908H1110.12V909H1105.05V908H1054.29V909H1049.21V908H998.454V909H993.379V908H942.621V909H937.545V908H886.788V909H881.712V908H830.954V909H825.879V908H775.121V909H770.045V908H719.288V909H714.212V908H663.454V909H658.379V908H607.621V909H602.545V908H551.788V909H546.712V908H495.954V909H490.879V908H440.121V909H435.045V908H384.288V909H379.212V908H328.455V909H323.379V908H272.621V909H267.545V908H216.788V909H211.712V908H160.955V909H155.879V908H105.121V909H100.045V908H49.2879V909H44.2121V908H-6.54545V909H-11.6212V908H-36V884.695H-37V879.834H-36V831.225H-37V826.364H-36V777.754H-37V772.893H-36V724.283H-37V719.422H-36V670.813H-37V665.952H-36V617.342H-37V612.481H-36V563.872H-37V559.011H-36V510.401H-37V505.54H-36V456.93H-37V452.069H-36V403.46H-37V398.599H-36V349.989H-37V345.128H-36V296.519H-37V291.658H-36V243.048H-37V238.187H-36V189.578H-37V184.717H-36V136.107H-37V131.246H-36V82.6364H-37V77.7754H-36V29.1658H-37V24.3048H-36V1H-11.6212V0H-6.5454V1H44.2121V0H49.288V1H100.046V0H105.121V1H155.879V0H160.955V1H211.712V0H216.788V1H267.546V0H272.621V1H323.379V0H328.455V1H379.212V0H384.288V1H435.046V0H440.121V1H490.879V0H495.955V1H546.712V0H551.788V1H602.546V0H607.621V1H658.379V0H663.455V1H714.212V0H719.288V1H770.046V0H775.121V1H825.879V0H830.955V1H881.712V0H886.788V1H937.545V0H942.621V1H993.379V0H998.455V1H1049.21V0H1054.29V1H1105.05V0H1110.12V1H1160.88V0H1165.95V1H1216.71V0H1221.79V1H1272.55V0H1277.62V1H1303C1315.27 1 1326.49 5.51118 1335.09 12.9672L1335.74 12.2118C1337.54 13.7717 1339.23 15.4579 1340.79 17.2567L1340.03 17.9118C1347.49 26.5092 1352 37.7265 1352 50V74.5151H1353V79.4181H1352V128.448H1353V133.351H1352V182.382H1353V187.285H1352V236.315H1353V241.218H1352V290.249H1353V295.151H1352V344.182H1353V349.085H1352V398.115H1353V403.018H1352V452.048H1353V456.952H1352V505.982H1353V510.885H1352V559.915H1353V564.818H1352V613.848H1353V618.752H1352V667.782H1353V672.685H1352V721.715H1353V726.618H1352V775.648H1353V780.552H1352V829.582H1353V834.485H1352V859C1352 871.273 1347.49 882.491 1340.03 891.088L1340.79 891.743C1339.23 893.542 1337.54 895.228 1335.74 896.788L1335.09 896.033C1326.49 903.489 1315.27 908 1303 908H1277.62Z" stroke="#B99A6D" stroke-width="2" stroke-dasharray="50 5"/>
</svg>
